<svg width="32" height="32" viewBox="0 0 32 32" fill="none" xmlns="http://www.w3.org/2000/svg">
<ellipse cx="15.5" cy="16" rx="12.5" ry="12" fill="#6532AC"/>
<g filter="url(#filter0_d_20_71)">
<path d="M13.4286 21.5714H15.1429V23.2857H13.4286V21.5714ZM15.1429 21.5714H16.8571V23.2857H15.1429V21.5714ZM15.1429 23.2857H16.8571V25H15.1429V23.2857ZM13.4286 23.2857H15.1429V25H13.4286V23.2857ZM13.4286 18.1429H15.1429V19.8571H13.4286V18.1429ZM15.1429 18.1429H16.8571V19.8571H15.1429V18.1429ZM15.1429 16.4286H16.8571V18.1429H15.1429V16.4286ZM13.4286 16.4286H15.1429V18.1429H13.4286V16.4286ZM13.4286 14.7143H15.1429V16.4286H13.4286V14.7143ZM15.1429 14.7143H16.8571V16.4286H15.1429V14.7143ZM16.8571 14.7143H18.5714V16.4286H16.8571V14.7143ZM15.1429 13H16.8571V14.7143H15.1429V13ZM16.8571 13H18.5714V14.7143H16.8571V13ZM18.5714 13H20.2857V14.7143H18.5714V13ZM18.5714 11.2857H20.2857V13H18.5714V11.2857ZM16.8571 11.2857H18.5714V13H16.8571V11.2857ZM16.8571 9.57143H18.5714V11.2857H16.8571V9.57143ZM18.5714 9.57143H20.2857V11.2857H18.5714V9.57143ZM16.8571 7.85714H18.5714V9.57143H16.8571V7.85714ZM15.1429 7.85714H16.8571V9.57143H15.1429V7.85714ZM15.1429 9.57143H16.8571V11.2857H15.1429V9.57143ZM13.4286 9.57143H15.1429V11.2857H13.4286V9.57143ZM11.7143 9.57143H13.4286V11.2857H11.7143V9.57143ZM11.7143 7.85714H13.4286V9.57143H11.7143V7.85714ZM13.4286 7.85714H15.1429V9.57143H13.4286V7.85714ZM10 9.57143H11.7143V11.2857H10V9.57143ZM10 11.2857H11.7143V13H10V11.2857ZM11.7143 11.2857H13.4286V13H11.7143V11.2857Z" fill="#F6C516"/>
</g>
<defs>
<filter id="filter0_d_20_71" x="9" y="7.85718" width="12.2857" height="20.1428" filterUnits="userSpaceOnUse" color-interpolation-filters="sRGB">
<feFlood flood-opacity="0" result="BackgroundImageFix"/>
<feColorMatrix in="SourceAlpha" type="matrix" values="0 0 0 0 0 0 0 0 0 0 0 0 0 0 0 0 0 0 127 0" result="hardAlpha"/>
<feOffset dy="2"/>
<feGaussianBlur stdDeviation="0.5"/>
<feComposite in2="hardAlpha" operator="out"/>
<feColorMatrix type="matrix" values="0 0 0 0 0.936968 0 0 0 0 1 0 0 0 0 0.0545185 0 0 0 0.25 0"/>
<feBlend mode="normal" in2="BackgroundImageFix" result="effect1_dropShadow_20_71"/>
<feBlend mode="normal" in="SourceGraphic" in2="effect1_dropShadow_20_71" result="shape"/>
</filter>
</defs>
</svg>
